<?xml version="1.0" encoding="utf-8"?>
<!-- Generator: Adobe Illustrator 16.0.0, SVG Export Plug-In . SVG Version: 6.00 Build 0)  -->
<!DOCTYPE svg PUBLIC "-//W3C//DTD SVG 1.1//EN" "http://www.w3.org/Graphics/SVG/1.1/DTD/svg11.dtd">
<svg version="1.1" id="Layer_1" xmlns:sketch="http://www.bohemiancoding.com/sketch/ns"
	 xmlns="http://www.w3.org/2000/svg" xmlns:xlink="http://www.w3.org/1999/xlink" x="0px" y="0px" width="54px" height="50px"
	 viewBox="-3.5 0 54 50" enable-background="new -3.5 0 54 50" xml:space="preserve">
<title>Imported Layers</title>
<desc>Created with Sketch.</desc>
<g id="Page-1" sketch:type="MSPage">
	<g id="Account-_x28_first-time_x29_" transform="translate(-73.000000, -619.000000)" sketch:type="MSArtboardGroup">
		<path id="Imported-Layers" sketch:type="MSShapeGroup" fill="#00AFC5" d="M98.277,668.943h18.055v-17.797H98.277V668.943z
			 M76.611,668.943h18.055v-17.797H76.611V668.943z M98.264,636.474c1.775-0.195,3.773-0.412,4.93-0.541
			c4.732-0.52,8.992-4.721,9.518-9.384c0.525-4.658-2.877-8.016-7.6-7.493c-3.691,0.407-7.068,3.057-8.64,6.415
			c-1.571-3.358-4.947-6.008-8.638-6.418c-4.724-0.52-8.132,2.838-7.601,7.496c0.527,4.663,4.789,8.86,9.516,9.384
			c1.159,0.128,3.156,0.349,4.932,0.541c-0.028,0.234-0.014,0.435-0.014,0.435h3.611C98.277,636.908,98.291,636.708,98.264,636.474
			L98.264,636.474z M104.336,623.375c2.553-0.281,4.4,1.533,4.111,4.053c-0.281,2.52-2.588,4.792-5.141,5.073
			c-2.561,0.28-4.401-1.535-4.116-4.055C99.477,625.927,101.783,623.655,104.336,623.375L104.336,623.375z M89.639,632.502
			c-2.553-0.281-4.855-2.553-5.141-5.073c-0.286-2.521,1.557-4.335,4.108-4.053c2.557,0.28,4.861,2.551,5.147,5.072
			C94.039,630.967,92.196,632.782,89.639,632.502L89.639,632.502z M98.277,647.586h21.666v-10.678H98.277V647.586z M73,647.586
			h21.666v-10.678H73V647.586z"/>
	</g>
</g>
</svg>
