<?xml version="1.0" encoding="utf-8"?>
<!-- Generator: Adobe Illustrator 16.0.0, SVG Export Plug-In . SVG Version: 6.00 Build 0)  -->
<!DOCTYPE svg PUBLIC "-//W3C//DTD SVG 1.1//EN" "http://www.w3.org/Graphics/SVG/1.1/DTD/svg11.dtd">
<svg version="1.1" id="Layer_1" xmlns:sketch="http://www.bohemiancoding.com/sketch/ns"
	 xmlns="http://www.w3.org/2000/svg" xmlns:xlink="http://www.w3.org/1999/xlink" x="0px" y="0px" width="55px" height="50px"
	 viewBox="-1.5 -1.5 55 50" enable-background="new -1.5 -1.5 55 50" xml:space="preserve">
<title>Imported Layers 2</title>
<desc>Created with Sketch.</desc>
<g id="Page-1" sketch:type="MSPage">
	<g id="Account-_x28_first-time_x29_" transform="translate(-71.000000, -1034.000000)" sketch:type="MSArtboardGroup">
		<g id="Imported-Layers-2" transform="translate(71.000000, 1034.000000)" sketch:type="MSLayerGroup">
			<path id="Fill-1" sketch:type="MSShapeGroup" fill="#00AFC5" d="M19.812,19.025c-1.952,0-3.535,1.603-3.535,3.58
				c0,1.977,1.583,3.579,3.535,3.579c1.953,0,3.536-1.602,3.536-3.579C23.348,20.628,21.765,19.025,19.812,19.025"/>
			<path id="Fill-2" sketch:type="MSShapeGroup" fill="#00AFC5" d="M32.188,19.025c-1.952,0-3.537,1.603-3.537,3.58
				c0,1.977,1.585,3.579,3.537,3.579c1.953,0,3.535-1.602,3.535-3.579C35.723,20.628,34.141,19.025,32.188,19.025"/>
			<path id="Fill-3" sketch:type="MSShapeGroup" fill="#00AFC5" d="M50.143,16.92h-1.305C45.719,7.24,36.681,0.235,26.08,0.235
				c-10.6,0-19.75,7.005-22.876,16.685H1.857C0.832,16.92,0,17.762,0,18.8v15.04c0,1.038,0.832,1.881,1.857,1.881h2.786
				c0.804,0,1.483-0.521,1.741-1.245C10.062,41.659,17.46,46.666,26,46.666c8.533,0,15.924-5.047,19.607-12.222
				c0.249,0.739,0.935,1.276,1.75,1.276h2.785c1.025,0,1.857-0.843,1.857-1.881V18.8C52,17.762,51.168,16.92,50.143,16.92
				L50.143,16.92z M26,43.186c-6.843,0-12.805-3.758-16.023-9.336l10.124,2.697c0.542,1.271,1.792,2.165,3.248,2.165
				c1.953,0,3.536-1.604,3.536-3.579c0-1.977-1.583-3.58-3.536-3.58c-1.312,0-2.443,0.732-3.054,1.807L8.341,30.176
				c-0.581-1.822-0.903-3.763-0.903-5.781c0-3.247,0.813-6.3,2.245-8.965c14.841-0.254,22.588-4.597,25.857-7.132
				c5.399,3.286,9.022,9.255,9.022,16.097C44.562,34.772,36.252,43.186,26,43.186L26,43.186z"/>
		</g>
	</g>
</g>
</svg>
