<?xml version="1.0" encoding="utf-8"?>
<!-- Generator: Adobe Illustrator 16.0.0, SVG Export Plug-In . SVG Version: 6.00 Build 0)  -->
<!DOCTYPE svg PUBLIC "-//W3C//DTD SVG 1.1//EN" "http://www.w3.org/Graphics/SVG/1.1/DTD/svg11.dtd">
<svg version="1.1" id="Layer_1" xmlns="http://www.w3.org/2000/svg" xmlns:xlink="http://www.w3.org/1999/xlink" x="0px" y="0px"
	 width="60px" height="60px" viewBox="0 0 60 60" enable-background="new 0 0 60 60" xml:space="preserve">
<path opacity="0.25" fill="#858585" d="M30,0C13.432,0,0,13.432,0,30s13.432,30,30,30s30-13.432,30-30S46.568,0,30,0z M30,59
	C14.009,59,1,45.99,1,30C1,14.009,14.009,1,30,1c15.99,0,29,13.009,29,29C59,45.99,45.99,59,30,59z"/>
<g>
	<path fill="#FFFFFF" d="M23.391,18.432L26.75,27h-0.876l-1.044-2.664h-3.899L19.898,27h-0.864l3.444-8.568H23.391z M24.555,23.64
		l-1.656-4.392l-1.716,4.392H24.555z"/>
	<path fill="#FFFFFF" d="M32.282,27v-1.176h-0.023c-0.08,0.2-0.198,0.384-0.354,0.552c-0.155,0.168-0.334,0.31-0.534,0.426
		c-0.199,0.116-0.413,0.206-0.642,0.27c-0.228,0.064-0.454,0.096-0.678,0.096c-0.473,0-0.882-0.086-1.23-0.258
		c-0.348-0.172-0.638-0.408-0.87-0.708c-0.231-0.3-0.403-0.648-0.516-1.044s-0.168-0.814-0.168-1.254
		c0-0.439,0.056-0.858,0.168-1.254s0.284-0.744,0.516-1.044c0.232-0.3,0.522-0.538,0.87-0.714c0.349-0.176,0.758-0.264,1.23-0.264
		c0.231,0,0.458,0.028,0.678,0.084c0.22,0.056,0.426,0.142,0.618,0.258c0.191,0.116,0.361,0.258,0.51,0.426s0.262,0.364,0.342,0.588
		h0.024v-3.552h0.756V27H32.282z M28.137,24.858c0.076,0.316,0.195,0.598,0.359,0.846s0.374,0.45,0.631,0.606
		c0.256,0.156,0.563,0.234,0.924,0.234c0.399,0,0.737-0.078,1.014-0.234c0.276-0.156,0.5-0.358,0.672-0.606s0.296-0.53,0.372-0.846
		c0.076-0.316,0.114-0.634,0.114-0.954c0-0.32-0.038-0.638-0.114-0.954s-0.2-0.598-0.372-0.846s-0.396-0.45-0.672-0.606
		c-0.276-0.156-0.614-0.234-1.014-0.234c-0.36,0-0.668,0.078-0.924,0.234c-0.257,0.156-0.467,0.358-0.631,0.606
		s-0.283,0.53-0.359,0.846s-0.114,0.634-0.114,0.954C28.022,24.224,28.061,24.542,28.137,24.858z"/>
	<path fill="#FFFFFF" d="M39.313,27v-1.176H39.29c-0.08,0.2-0.198,0.384-0.354,0.552c-0.155,0.168-0.334,0.31-0.534,0.426
		c-0.199,0.116-0.413,0.206-0.642,0.27c-0.228,0.064-0.454,0.096-0.678,0.096c-0.473,0-0.882-0.086-1.23-0.258
		c-0.348-0.172-0.638-0.408-0.87-0.708c-0.231-0.3-0.403-0.648-0.516-1.044s-0.168-0.814-0.168-1.254
		c0-0.439,0.056-0.858,0.168-1.254s0.284-0.744,0.516-1.044c0.232-0.3,0.522-0.538,0.87-0.714c0.349-0.176,0.758-0.264,1.23-0.264
		c0.231,0,0.458,0.028,0.678,0.084c0.22,0.056,0.426,0.142,0.618,0.258c0.191,0.116,0.361,0.258,0.51,0.426s0.262,0.364,0.342,0.588
		h0.024v-3.552h0.756V27H39.313z M35.168,24.858c0.076,0.316,0.195,0.598,0.359,0.846s0.374,0.45,0.631,0.606
		c0.256,0.156,0.563,0.234,0.924,0.234c0.399,0,0.737-0.078,1.014-0.234c0.276-0.156,0.5-0.358,0.672-0.606s0.296-0.53,0.372-0.846
		c0.076-0.316,0.114-0.634,0.114-0.954c0-0.32-0.038-0.638-0.114-0.954s-0.2-0.598-0.372-0.846s-0.396-0.45-0.672-0.606
		c-0.276-0.156-0.614-0.234-1.014-0.234c-0.36,0-0.668,0.078-0.924,0.234c-0.257,0.156-0.467,0.358-0.631,0.606
		s-0.283,0.53-0.359,0.846s-0.114,0.634-0.114,0.954C35.054,24.224,35.092,24.542,35.168,24.858z"/>
</g>
<g>
	<path fill="#FFFFFF" d="M18.843,32.932c0.384,0,0.732,0.055,1.044,0.162c0.312,0.108,0.58,0.269,0.804,0.48
		c0.225,0.212,0.396,0.47,0.517,0.773c0.12,0.305,0.18,0.648,0.18,1.032s-0.06,0.729-0.18,1.032s-0.292,0.562-0.517,0.773
		c-0.224,0.213-0.491,0.372-0.804,0.48c-0.312,0.108-0.66,0.162-1.044,0.162h-2.988V41.5h-0.815v-8.568H18.843z M18.663,37.132
		c0.567,0,1.027-0.144,1.38-0.432c0.352-0.288,0.528-0.729,0.528-1.32s-0.177-1.032-0.528-1.32c-0.353-0.287-0.812-0.432-1.38-0.432
		h-2.809v3.504H18.663z"/>
	<path fill="#FFFFFF" d="M23.343,32.932v3.444h0.024c0.144-0.376,0.399-0.678,0.768-0.906c0.368-0.228,0.772-0.342,1.212-0.342
		c0.433,0,0.794,0.056,1.086,0.168s0.526,0.271,0.702,0.474c0.176,0.204,0.3,0.455,0.372,0.75c0.072,0.297,0.108,0.629,0.108,0.996
		V41.5h-0.756v-3.864c0-0.264-0.024-0.51-0.072-0.737c-0.048-0.229-0.132-0.427-0.252-0.595s-0.282-0.3-0.486-0.396
		c-0.204-0.097-0.458-0.145-0.762-0.145c-0.305,0-0.574,0.055-0.811,0.162c-0.235,0.108-0.436,0.256-0.6,0.444
		c-0.164,0.188-0.292,0.412-0.384,0.672c-0.093,0.26-0.143,0.542-0.15,0.846V41.5h-0.756v-8.568H23.343z"/>
	<path fill="#FFFFFF" d="M33.057,35.392c0.364,0.177,0.67,0.412,0.918,0.708c0.248,0.297,0.437,0.643,0.564,1.038
		c0.128,0.396,0.191,0.818,0.191,1.267s-0.063,0.87-0.191,1.266c-0.128,0.396-0.316,0.742-0.564,1.038s-0.554,0.53-0.918,0.702
		s-0.782,0.258-1.254,0.258s-0.89-0.086-1.254-0.258s-0.67-0.406-0.918-0.702s-0.437-0.642-0.564-1.038
		c-0.128-0.396-0.191-0.817-0.191-1.266s0.063-0.87,0.191-1.267c0.128-0.396,0.316-0.741,0.564-1.038
		c0.248-0.296,0.554-0.531,0.918-0.708c0.364-0.176,0.782-0.264,1.254-0.264S32.692,35.216,33.057,35.392z M30.854,35.992
		c-0.271,0.152-0.498,0.352-0.678,0.6s-0.316,0.53-0.408,0.847c-0.092,0.315-0.138,0.638-0.138,0.966s0.046,0.649,0.138,0.966
		s0.229,0.598,0.408,0.846s0.406,0.448,0.678,0.601c0.272,0.151,0.588,0.228,0.948,0.228s0.676-0.076,0.948-0.228
		c0.271-0.152,0.498-0.353,0.678-0.601s0.316-0.529,0.408-0.846s0.138-0.638,0.138-0.966s-0.046-0.65-0.138-0.966
		c-0.092-0.316-0.229-0.599-0.408-0.847s-0.406-0.447-0.678-0.6c-0.272-0.152-0.588-0.229-0.948-0.229S31.127,35.84,30.854,35.992z"
		/>
	<path fill="#FFFFFF" d="M38.462,35.308v0.637h-1.26v4.176c0,0.248,0.034,0.442,0.103,0.582c0.067,0.14,0.237,0.218,0.51,0.233
		c0.216,0,0.432-0.012,0.647-0.035v0.636c-0.111,0-0.224,0.004-0.336,0.012s-0.224,0.012-0.336,0.012
		c-0.504,0-0.855-0.098-1.056-0.294c-0.2-0.195-0.296-0.558-0.288-1.086v-4.235h-1.08v-0.637h1.08v-1.859h0.756v1.859H38.462z"/>
	<path fill="#FFFFFF" d="M43.568,35.392c0.364,0.177,0.67,0.412,0.918,0.708c0.248,0.297,0.437,0.643,0.564,1.038
		c0.128,0.396,0.191,0.818,0.191,1.267s-0.063,0.87-0.191,1.266c-0.128,0.396-0.316,0.742-0.564,1.038s-0.554,0.53-0.918,0.702
		s-0.782,0.258-1.254,0.258s-0.89-0.086-1.254-0.258s-0.67-0.406-0.918-0.702s-0.437-0.642-0.564-1.038
		c-0.128-0.396-0.191-0.817-0.191-1.266s0.063-0.87,0.191-1.267c0.128-0.396,0.316-0.741,0.564-1.038
		c0.248-0.296,0.554-0.531,0.918-0.708c0.364-0.176,0.782-0.264,1.254-0.264S43.204,35.216,43.568,35.392z M41.366,35.992
		c-0.271,0.152-0.498,0.352-0.678,0.6s-0.316,0.53-0.408,0.847c-0.092,0.315-0.138,0.638-0.138,0.966s0.046,0.649,0.138,0.966
		s0.229,0.598,0.408,0.846s0.406,0.448,0.678,0.601c0.272,0.151,0.588,0.228,0.948,0.228s0.676-0.076,0.948-0.228
		c0.271-0.152,0.498-0.353,0.678-0.601s0.316-0.529,0.408-0.846s0.138-0.638,0.138-0.966s-0.046-0.65-0.138-0.966
		c-0.092-0.316-0.229-0.599-0.408-0.847s-0.406-0.447-0.678-0.6c-0.272-0.152-0.588-0.229-0.948-0.229S41.639,35.84,41.366,35.992z"
		/>
</g>
</svg>
