<?xml version="1.0" encoding="utf-8"?>
<!-- Generator: Adobe Illustrator 16.0.0, SVG Export Plug-In . SVG Version: 6.00 Build 0)  -->
<!DOCTYPE svg PUBLIC "-//W3C//DTD SVG 1.1//EN" "http://www.w3.org/Graphics/SVG/1.1/DTD/svg11.dtd">
<svg version="1.1" id="Layer_1" xmlns:sketch="http://www.bohemiancoding.com/sketch/ns"
	 xmlns="http://www.w3.org/2000/svg" xmlns:xlink="http://www.w3.org/1999/xlink" x="0px" y="0px" width="54px" height="50px"
	 viewBox="-1.5 0.5 54 50" enable-background="new -1.5 0.5 54 50" xml:space="preserve">
<title>Oval 415 + $</title>
<desc>Created with Sketch.</desc>
<g id="Page-1" sketch:type="MSPage">
	<g id="Account-_x28_first-time_x29_" transform="translate(-71.000000, -787.000000)" sketch:type="MSArtboardGroup">
		<g id="Oval-415-_x2B_-_x24_" transform="translate(71.000000, 788.000000)" sketch:type="MSLayerGroup">
			<ellipse id="Oval-415" sketch:type="MSShapeGroup" fill="#00AFC5" cx="25.5" cy="24.5" rx="25" ry="25">
			</ellipse>
			<path id="_x24_" sketch:type="MSShapeGroup" fill="#FFFFFF" d="M17.95,29.748h-3.825c0.24,3.125,1.245,5.572,3.015,7.344
				s4.155,2.805,7.155,3.104v3.66h2.475v-3.66c1.44-0.119,2.76-0.418,3.961-0.893c1.199-0.477,2.234-1.125,3.104-1.943
				s1.553-1.793,2.048-2.924c0.494-1.131,0.742-2.424,0.742-3.885c0-1.367-0.263-2.543-0.787-3.525
				c-0.525-0.982-1.163-1.801-1.913-2.455c-0.75-0.655-1.53-1.169-2.34-1.541s-1.515-0.633-2.114-0.781l-2.701-0.714V10.551
				c2.761,0.506,4.44,2.232,5.041,5.179h3.824c-0.6-2.619-1.619-4.672-3.06-6.161c-1.44-1.488-3.375-2.381-5.806-2.679V3.899h-2.475
				v2.947c-1.29,0.089-2.498,0.372-3.623,0.848s-2.1,1.124-2.925,1.942c-0.825,0.819-1.478,1.786-1.958,2.902
				c-0.48,1.116-0.72,2.344-0.72,3.683c0,1.31,0.18,2.426,0.54,3.349c0.36,0.922,0.923,1.704,1.688,2.343
				c0.765,0.64,1.725,1.191,2.88,1.652c1.155,0.461,2.527,0.886,4.117,1.273v11.83c-1.8-0.297-3.292-1.027-4.478-2.188
				S18.01,31.742,17.95,29.748z M26.77,36.668V25.463c0.811,0.236,1.576,0.498,2.295,0.781c0.721,0.281,1.336,0.633,1.846,1.049
				s0.915,0.916,1.215,1.496s0.45,1.301,0.45,2.164c0,0.953-0.143,1.779-0.428,2.479s-0.69,1.279-1.215,1.742
				c-0.524,0.461-1.14,0.809-1.845,1.047S27.609,36.609,26.77,36.668z M24.295,10.417v10.446c-0.75-0.208-1.44-0.446-2.07-0.714
				c-0.63-0.268-1.178-0.588-1.643-0.96s-0.825-0.833-1.08-1.384c-0.255-0.55-0.382-1.213-0.382-1.987
				c0-1.696,0.502-2.983,1.507-3.862C21.632,11.08,22.855,10.566,24.295,10.417z"/>
		</g>
	</g>
</g>
</svg>
