<?xml version="1.0" encoding="utf-8"?>
<!-- Generator: Adobe Illustrator 16.0.0, SVG Export Plug-In . SVG Version: 6.00 Build 0)  -->
<!DOCTYPE svg PUBLIC "-//W3C//DTD SVG 1.1//EN" "http://www.w3.org/Graphics/SVG/1.1/DTD/svg11.dtd">
<svg version="1.1" id="Layer_1" xmlns="http://www.w3.org/2000/svg" xmlns:xlink="http://www.w3.org/1999/xlink" x="0px" y="0px"
	 width="75px" height="75px" viewBox="0 0 75 75" enable-background="new 0 0 75 75" xml:space="preserve">
<path fill="#FFFFFF" d="M42,46.409l-0.684-1.168c-1.274,1.182-2.941,1.896-4.767,1.896c-4.015,0-7.268-3.459-7.268-7.728V33.5H28
	v5.909c0,4.825,3.534,8.759,8,9.062V53.5h-4.5v2H42v-2h-4v-5.134C39.504,48.093,40.874,47.402,42,46.409z"/>
<path fill="#FFFFFF" d="M42,27.784c0-2.919-2.275-5.284-5.085-5.284c-1.313,0-2.513,0.52-3.415,1.369L42,38V27.784z"/>
<path fill="#FFFFFF" d="M45.5,39.325V33.5h-1.2v5.825c0,0.78-0.104,1.532-0.3,2.245L44.8,43C45.252,41.88,45.5,40.634,45.5,39.325z"
	/>
<path fill="#FFFFFF" d="M40,42.631L31.5,28.5v10.216c0,2.919,2.275,5.284,5.084,5.284C37.898,44,39.098,43.48,40,42.631z"/>
<polygon fill="#FFFFFF" points="28,20.397 46.17,50 47.5,49.104 29.33,19.5 "/>
<path opacity="0.5" fill="#FFFFFF" d="M37.5,0C16.789,0,0,16.79,0,37.5C0,58.211,16.789,75,37.5,75S75,58.211,75,37.5
	C75,16.79,58.211,0,37.5,0z M37.5,73.5c-19.851,0-36-16.148-36-36c0-19.851,16.149-36,36-36c19.852,0,36,16.149,36,36
	C73.5,57.352,57.352,73.5,37.5,73.5z"/>
</svg>
