<?xml version="1.0" encoding="utf-8"?>
<!-- Generator: Adobe Illustrator 16.0.0, SVG Export Plug-In . SVG Version: 6.00 Build 0)  -->
<!DOCTYPE svg PUBLIC "-//W3C//DTD SVG 1.1//EN" "http://www.w3.org/Graphics/SVG/1.1/DTD/svg11.dtd">
<svg version="1.1" id="Layer_1" xmlns="http://www.w3.org/2000/svg" xmlns:xlink="http://www.w3.org/1999/xlink" x="0px" y="0px"
	 width="75px" height="75px" viewBox="0 0 75 75" enable-background="new 0 0 75 75" xml:space="preserve">
<path fill-rule="evenodd" clip-rule="evenodd" fill="#FFFFFF" d="M37.5,0C16.789,0,0,16.79,0,37.5C0,58.211,16.789,75,37.5,75
	S75,58.211,75,37.5C75,16.79,58.211,0,37.5,0z M34,45.5l-4-4h-8v-8h8l4-4V45.5z M38.385,44.5L37.5,43.627
	c1.412-1.752,2.254-3.969,2.254-6.377s-0.842-4.625-2.254-6.377L38.385,30C40.021,31.975,41,34.502,41,37.25
	S40.021,42.525,38.385,44.5z M42,48.146c2.381-2.88,3.812-6.591,3.812-10.644S44.381,29.738,42,26.859L42.844,26
	C45.439,29.098,47,33.114,47,37.502S45.439,45.906,42.844,49L42,48.146z M46.825,53L46,52.146c3.318-3.909,5.332-9.031,5.332-14.646
	S49.318,26.764,46,22.855L46.825,22c3.532,4.126,5.675,9.555,5.675,15.5S50.357,48.874,46.825,53z"/>
</svg>
