<?xml version="1.0" encoding="utf-8"?>
<!-- Generator: Adobe Illustrator 16.0.0, SVG Export Plug-In . SVG Version: 6.00 Build 0)  -->
<!DOCTYPE svg PUBLIC "-//W3C//DTD SVG 1.1//EN" "http://www.w3.org/Graphics/SVG/1.1/DTD/svg11.dtd">
<svg version="1.1" id="Layer_1" xmlns="http://www.w3.org/2000/svg" xmlns:xlink="http://www.w3.org/1999/xlink" x="0px" y="0px"
	 width="75px" height="75px" viewBox="0 0 75 75" enable-background="new 0 0 75 75" xml:space="preserve">
<path opacity="0.5" fill="#FFFFFF" enable-background="new    " d="M37.5,1.5c19.852,0,36,16.149,36,36c0,19.852-16.148,36-36,36
	c-19.851,0-36-16.148-36-36C1.5,17.649,17.649,1.5,37.5,1.5 M37.5,0C16.789,0,0,16.79,0,37.5C0,58.211,16.789,75,37.5,75
	S75,58.211,75,37.5C75,16.79,58.211,0,37.5,0L37.5,0z"/>
<g>
	<path fill="#FFFFFF" d="M22.5,21.021c0-2.21,1.79-4,4-4s4,1.79,4,4s-1.79,4-4,4S22.5,23.231,22.5,21.021"/>
	<path fill="#FFFFFF" d="M33.5,21.021c0-2.21,1.79-4,4-4s4,1.79,4,4s-1.79,4-4,4S33.5,23.231,33.5,21.021"/>
	<path fill="#FFFFFF" d="M44.5,21.021c0-2.21,1.79-4,4-4s4,1.79,4,4s-1.79,4-4,4S44.5,23.231,44.5,21.021"/>
	<path fill="#FFFFFF" d="M22.5,32.014c0-2.21,1.79-4,4-4s4,1.79,4,4c0,2.21-1.79,4-4,4S22.5,34.225,22.5,32.014"/>
	<path fill="#FFFFFF" d="M33.5,32.007c0-2.21,1.79-4,4-4s4,1.79,4,4c0,2.209-1.79,4-4,4S33.5,34.217,33.5,32.007"/>
	<path fill="#FFFFFF" d="M44.5,32.021c0-2.21,1.79-4,4-4s4,1.79,4,4s-1.79,4-4,4S44.5,34.231,44.5,32.021"/>
	<path fill="#FFFFFF" d="M22.5,43.021c0-2.21,1.79-4,4-4s4,1.79,4,4s-1.79,4-4,4S22.5,45.231,22.5,43.021"/>
	<path fill="#FFFFFF" d="M33.5,43.021c0-2.21,1.79-4,4-4s4,1.79,4,4s-1.79,4-4,4S33.5,45.231,33.5,43.021"/>
	<path fill="#FFFFFF" d="M44.5,43.021c0-2.21,1.79-4,4-4s4,1.79,4,4s-1.79,4-4,4S44.5,45.231,44.5,43.021"/>
	<path fill="#FFFFFF" d="M33.5,53.979c0-2.21,1.79-4,4-4s4,1.79,4,4s-1.79,4-4,4S33.5,56.188,33.5,53.979"/>
</g>
</svg>
