<?xml version="1.0" encoding="utf-8"?>
<!-- Generator: Adobe Illustrator 16.0.0, SVG Export Plug-In . SVG Version: 6.00 Build 0)  -->
<!DOCTYPE svg PUBLIC "-//W3C//DTD SVG 1.1//EN" "http://www.w3.org/Graphics/SVG/1.1/DTD/svg11.dtd">
<svg version="1.1" id="Layer_1" xmlns:sketch="http://www.bohemiancoding.com/sketch/ns"
	 xmlns="http://www.w3.org/2000/svg" xmlns:xlink="http://www.w3.org/1999/xlink" x="0px" y="0px" width="54px" height="50px"
	 viewBox="0 -3 54 50" enable-background="new 0 -3 54 50" xml:space="preserve">
<title>Imported Layers</title>
<desc>Created with Sketch.</desc>
<g>
	<path fill="#00AFC5" d="M18.832,2.445C11.617,2.403,5.735,8.217,5.693,15.431c-0.042,7.217,5.771,13.098,12.986,13.141
		c7.218,0.042,13.098-5.771,13.14-12.988C31.86,8.37,26.05,2.487,18.832,2.445z M19.331,25.855c-3.893-0.022-7.304-2.598-9.277-6.48
		l18.63,0.108C26.665,23.343,23.227,25.879,19.331,25.855z"/>
	<path fill="#00AFC5" d="M26.639,30.267c-2.348,1.261-5.034,1.976-7.884,1.976c-2.848,0-5.529-0.714-7.88-1.976
		C5.8,31.601,1.821,34.76,0,41.557h37.516C35.689,34.76,31.716,31.601,26.639,30.267L26.639,30.267z"/>
	<g id="Layer_1_1_">
		<path fill="#00AFC5" d="M50.936,22.037l-0.009,0.036c-0.186-0.708-0.479-1.372-0.836-1.991c0.381-0.506,1.832-2.586,0.815-3.607
			l-0.512-0.541c-0.203-0.206-0.48-0.285-0.793-0.285c-1.05,0-2.494,0.916-2.811,1.126c-0.622-0.346-1.287-0.628-1.983-0.823
			c-0.106-0.64-0.592-3.083-2.027-3.083h-0.566c-1.248,0-1.939,2.612-2.063,3.108c-0.691,0.195-1.347,0.479-1.948,0.824
			c-0.28-0.208-1.612-1.174-2.701-1.174c-0.353,0-0.679,0.1-0.938,0.359l-0.539,0.46c-0.95,0.938,0.752,3.489,0.876,3.683
			c-0.335,0.604-0.61,1.242-0.797,1.923c-0.478,0.07-3.144,0.54-3.144,2.036v0.566c0,1.311,2.859,2.01,3.151,2.072
			c0.194,0.682,0.47,1.312,0.807,1.914c-0.17,0.256-1.771,2.771-0.842,3.701l0.515,0.426c0.269,0.266,0.607,0.373,0.968,0.373
			c1.189,0,2.618-1.125,2.618-1.125s1.187,0.52,1.957,0.734c0.07,0.282,0.77,3.16,2.081,3.16h0.566c1.647,0,2.056-3.063,2.056-3.063
			s1.265-0.486,1.938-0.858c0.346,0.23,1.725,1.119,2.75,1.119c0.311,0,0.587-0.08,0.792-0.287l0.57-0.564
			c1.156-1.162-0.782-3.562-0.782-3.562l-0.053,0.055c0.375-0.638,0.665-1.309,0.869-2.028C51.493,26.57,54,25.881,54,24.657V24.09
			C54,22.443,50.936,22.037,50.936,22.037z M42.431,29.086c-2.572,0-4.645-2.152-4.645-4.732c0-2.573,2.072-4.656,4.645-4.656
			c2.562,0,4.742,2.084,4.742,4.656C47.173,26.934,44.992,29.086,42.431,29.086z"/>
	</g>
</g>
</svg>
