<?xml version="1.0" encoding="utf-8"?>
<!-- Generator: Adobe Illustrator 16.0.0, SVG Export Plug-In . SVG Version: 6.00 Build 0)  -->
<!DOCTYPE svg PUBLIC "-//W3C//DTD SVG 1.1//EN" "http://www.w3.org/Graphics/SVG/1.1/DTD/svg11.dtd">
<svg version="1.1" id="Layer_1" xmlns:sketch="http://www.bohemiancoding.com/sketch/ns"
	 xmlns="http://www.w3.org/2000/svg" xmlns:xlink="http://www.w3.org/1999/xlink" x="0px" y="0px" width="54px" height="50px"
	 viewBox="-1.5 0 54 50" enable-background="new -1.5 0 54 50" xml:space="preserve">
<title>Imported Layers</title>
<desc>Created with Sketch.</desc>
<g id="Page-1" sketch:type="MSPage">
	<g id="Account-_x28_first-time_x29_" transform="translate(-70.000000, -950.000000)" sketch:type="MSArtboardGroup">
		<g id="Imported-Layers" transform="translate(71.000000, 950.000000)" sketch:type="MSLayerGroup">
			<path id="Fill-1" sketch:type="MSShapeGroup" fill="#00AFC5" d="M24.75,0c13.807,0,25,11.193,25,25c0,13.807-11.193,25-25,25
				c-13.807,0-25-11.193-25-25C-0.25,11.193,10.943,0,24.75,0"/>
			<path id="Fill-2" sketch:type="MSShapeGroup" fill="#FFFFFF" d="M25.813,33.991c0,0,2.576-1.475,3.25-1.828
				c0.673-0.357,1.368-0.446,1.792-0.188c0.644,0.391,6.021,3.969,6.475,4.286c0.453,0.318,0.674,1.224,0.05,2.112
				c-0.623,0.888-3.482,4.398-4.694,4.364c-1.215-0.038-6.262-0.15-15.785-9.674c-9.52-9.523-9.632-14.573-9.672-15.788
				c-0.038-1.212,3.473-4.076,4.362-4.696s1.795-0.386,2.111,0.051c0.359,0.496,3.896,5.858,4.286,6.473
				c0.266,0.42,0.167,1.12-0.187,1.794c-0.354,0.673-1.829,3.25-1.829,3.25s1.04,1.772,4.554,5.288
				C24.042,32.95,25.813,33.991,25.813,33.991"/>
			<path id="ID" sketch:type="MSShapeGroup" fill="#FFFFFF" d="M24.293,10.249h2.445v14.102h-2.445V10.249z M29.729,10.249h5.788
				c1.069,0,1.995,0.184,2.777,0.553s1.421,0.872,1.916,1.511c0.496,0.639,0.864,1.386,1.105,2.242
				c0.241,0.855,0.361,1.771,0.361,2.746c0,0.974-0.12,1.889-0.361,2.745s-0.609,1.603-1.105,2.242
				c-0.495,0.639-1.134,1.142-1.916,1.511c-0.782,0.369-1.708,0.553-2.777,0.553h-5.788V10.249z M32.174,22.336h2.406
				c0.951,0,1.73-0.128,2.336-0.385c0.606-0.256,1.082-0.612,1.428-1.066c0.346-0.454,0.58-0.988,0.704-1.6
				c0.124-0.612,0.187-1.274,0.187-1.985c0-0.711-0.062-1.373-0.187-1.985s-0.358-1.146-0.704-1.6s-0.821-0.81-1.428-1.067
				c-0.605-0.257-1.385-0.385-2.336-0.385h-2.406V22.336z"/>
		</g>
	</g>
</g>
</svg>
