<?xml version="1.0" encoding="utf-8"?>
<!-- Generator: Adobe Illustrator 16.0.0, SVG Export Plug-In . SVG Version: 6.00 Build 0)  -->
<!DOCTYPE svg PUBLIC "-//W3C//DTD SVG 1.1//EN" "http://www.w3.org/Graphics/SVG/1.1/DTD/svg11.dtd">
<svg version="1.1" id="Layer_1" xmlns="http://www.w3.org/2000/svg" xmlns:xlink="http://www.w3.org/1999/xlink" x="0px" y="0px"
	 width="150px" height="150px" viewBox="0 0 150 150" enable-background="new 0 0 150 150" xml:space="preserve">
<g id="Layer_1_1_">
</g>
<path fill="#00AFC5" d="M74.493,0c-41.422,0-75,33.58-75,75c0,41.421,33.578,75,75,75c41.422,0,75-33.578,75-75
	C149.493,33.58,115.915,0,74.493,0L74.493,0z"/>
<path fill="#FFFFFF" d="M81.893,91.02c0,0,6.326-3.621,7.982-4.492c1.652-0.875,3.363-1.094,4.402-0.457
	c1.574,0.964,14.789,9.755,15.896,10.531c1.106,0.781,1.646,3.015,0.123,5.191c-1.522,2.18-8.554,10.801-11.53,10.711
	c-2.988-0.098-15.384-0.375-38.772-23.762C36.613,65.356,36.337,52.95,36.239,49.968c-0.092-2.98,8.532-10.012,10.714-11.536
	c2.185-1.521,4.41-0.947,5.187,0.124c0.882,1.219,9.567,14.391,10.525,15.9c0.654,1.03,0.414,2.75-0.458,4.404
	c-0.872,1.655-4.492,7.983-4.492,7.983s2.555,4.354,11.188,12.988C77.544,88.461,81.893,91.02,81.893,91.02z"/>
</svg>
