<?xml version="1.0" encoding="utf-8"?>
<!-- Generator: Adobe Illustrator 16.0.0, SVG Export Plug-In . SVG Version: 6.00 Build 0)  -->
<!DOCTYPE svg PUBLIC "-//W3C//DTD SVG 1.1//EN" "http://www.w3.org/Graphics/SVG/1.1/DTD/svg11.dtd">
<svg version="1.1" id="Layer_1" xmlns="http://www.w3.org/2000/svg" xmlns:xlink="http://www.w3.org/1999/xlink" x="0px" y="0px"
	 width="75px" height="75px" viewBox="0 0 75 75" enable-background="new 0 0 75 75" xml:space="preserve">
<path fill="#FFFFFF" d="M37.5,0C16.789,0,0,16.79,0,37.5C0,58.211,16.789,75,37.5,75S75,58.211,75,37.5C75,16.79,58.211,0,37.5,0z
	 M26.5,47.021c-2.21,0-4-1.79-4-4s1.79-4,4-4s4,1.79,4,4S28.71,47.021,26.5,47.021z M26.5,36.014c-2.21,0-4-1.789-4-4
	c0-2.209,1.79-4,4-4s4,1.791,4,4C30.5,34.225,28.71,36.014,26.5,36.014z M26.5,25.021c-2.21,0-4-1.79-4-4s1.79-4,4-4s4,1.79,4,4
	S28.71,25.021,26.5,25.021z M37.5,57.979c-2.21,0-4-1.79-4-4s1.79-4,4-4s4,1.79,4,4S39.71,57.979,37.5,57.979z M37.5,47.021
	c-2.21,0-4-1.79-4-4s1.79-4,4-4s4,1.79,4,4S39.71,47.021,37.5,47.021z M37.5,36.007c-2.21,0-4-1.79-4-3.999c0-2.211,1.79-4,4-4
	s4,1.789,4,4C41.5,34.217,39.71,36.007,37.5,36.007z M37.5,25.021c-2.21,0-4-1.79-4-4s1.79-4,4-4s4,1.79,4,4
	S39.71,25.021,37.5,25.021z M48.5,47.021c-2.21,0-4-1.79-4-4s1.79-4,4-4s4,1.79,4,4S50.71,47.021,48.5,47.021z M48.5,36.021
	c-2.21,0-4-1.79-4-4s1.79-4,4-4s4,1.79,4,4S50.71,36.021,48.5,36.021z M48.5,25.021c-2.21,0-4-1.79-4-4s1.79-4,4-4s4,1.79,4,4
	S50.71,25.021,48.5,25.021z"/>
</svg>
