<?xml version="1.0" encoding="utf-8"?>
<!-- Generator: Adobe Illustrator 16.0.0, SVG Export Plug-In . SVG Version: 6.00 Build 0)  -->
<!DOCTYPE svg PUBLIC "-//W3C//DTD SVG 1.1//EN" "http://www.w3.org/Graphics/SVG/1.1/DTD/svg11.dtd">
<svg version="1.1" xmlns="http://www.w3.org/2000/svg" xmlns:xlink="http://www.w3.org/1999/xlink" x="0px" y="0px" width="206px"
	 height="98px" viewBox="0 0 206 98" enable-background="new 0 0 206 98" xml:space="preserve">
<g id="Layer_1">
	<g>
		<path fill="#008191" d="M165.609,8H39.596C17.507,8,0,24.78,0,46.336v3.906C0,71.805,17.512,90,39.596,90h126.013
			C187.695,90,206,71.797,206,50.242v-3.906C206,24.771,187.691,8,165.609,8L165.609,8z"/>
		<path fill="#FFFFFF" d="M123.02,78.996c2.383,0.07,8.004-6.828,9.226-8.57c1.219-1.744,0.793-3.525-0.097-4.15
			c-0.891-0.621-11.461-7.649-12.723-8.426c-0.828-0.506-2.199-0.328-3.52,0.369c-1.324,0.705-6.389,3.605-6.389,3.605
			s-3.479-2.047-10.388-8.959c-6.905-6.904-8.95-10.389-8.95-10.389s2.896-5.062,3.595-6.388c0.697-1.322,0.888-2.698,0.365-3.521
			c-0.766-1.21-7.714-11.746-8.42-12.721c-0.622-0.857-2.401-1.317-4.147-0.1c-1.748,1.218-8.646,6.844-8.572,9.229
			C73.08,31.36,73.3,41.284,92.006,59.992C110.711,78.699,120.629,78.918,123.02,78.996z"/>
	</g>
</g>
<g id="Isolation_Mode">
</g>
</svg>
