<?xml version="1.0" encoding="utf-8"?>
<!-- Generator: Adobe Illustrator 16.0.0, SVG Export Plug-In . SVG Version: 6.00 Build 0)  -->
<!DOCTYPE svg PUBLIC "-//W3C//DTD SVG 1.1//EN" "http://www.w3.org/Graphics/SVG/1.1/DTD/svg11.dtd">
<svg version="1.1" id="Layer_1" xmlns="http://www.w3.org/2000/svg" xmlns:xlink="http://www.w3.org/1999/xlink" x="0px" y="0px"
	 width="75px" height="75px" viewBox="0 0 75 75" enable-background="new 0 0 75 75" xml:space="preserve">
<path fill="#FFFFFF" d="M42.844,26L42,26.859c2.381,2.879,3.812,6.59,3.812,10.643S44.381,45.266,42,48.146L42.844,49
	C45.439,45.906,47,41.89,47,37.502S45.439,29.098,42.844,26z"/>
<path fill="#FFFFFF" d="M37.5,30.873c1.412,1.752,2.254,3.969,2.254,6.377s-0.842,4.625-2.254,6.377l0.885,0.873
	C40.021,42.525,41,39.998,41,37.25s-0.979-5.275-2.615-7.25L37.5,30.873z"/>
<polygon fill="#FFFFFF" points="22,33.5 22,41.5 30,41.5 34,45.5 34,29.5 30,33.5 "/>
<path fill="#FFFFFF" d="M46,22.855c3.318,3.908,5.332,9.03,5.332,14.645S49.318,48.236,46,52.146L46.825,53
	c3.532-4.126,5.675-9.555,5.675-15.5S50.357,26.126,46.825,22L46,22.855z"/>
<path opacity="0.5" fill="#FFFFFF" d="M37.5,0C16.789,0,0,16.79,0,37.5C0,58.211,16.789,75,37.5,75S75,58.211,75,37.5
	C75,16.79,58.211,0,37.5,0z M37.5,73.5c-19.852,0-36-16.148-36-36c0-19.851,16.148-36,36-36s36,16.149,36,36
	C73.5,57.352,57.352,73.5,37.5,73.5z"/>
</svg>
