<?xml version="1.0" encoding="utf-8"?>
<!-- Generator: Adobe Illustrator 16.0.0, SVG Export Plug-In . SVG Version: 6.00 Build 0)  -->
<!DOCTYPE svg PUBLIC "-//W3C//DTD SVG 1.1//EN" "http://www.w3.org/Graphics/SVG/1.1/DTD/svg11.dtd">
<svg version="1.1" id="Layer_1" xmlns="http://www.w3.org/2000/svg" xmlns:xlink="http://www.w3.org/1999/xlink" x="0px" y="0px"
	 width="60px" height="60px" viewBox="0 0 60 60" enable-background="new 0 0 60 60" xml:space="preserve">
<g id="Layer_9">
	<path fill="#D8D8D8" d="M30,0C13.432,0,0,13.431,0,30c0,7.873,3.037,15.034,7.998,20.386c4.361,4.705,10.213,8.005,16.804,9.156
		C26.491,59.837,28.227,60,30,60c1.773,0,3.509-0.163,5.198-0.458c6.604-1.153,12.465-4.464,16.829-9.183
		C56.975,45.011,60,37.859,60,30C60,13.431,46.568,0,30,0z M30,56.336c-7.273,0-13.858-2.949-18.625-7.716
		c1.37-0.628,2.931-1.267,4.657-1.902c6.487-2.387,8.562-3.668,8.562-7.978c0-2.59-1.979-1.746-2.85-6.484
		c-0.363-1.967-2.11-0.031-2.446-4.52c0-1.788,0.953-2.233,0.953-2.233s-0.483-2.646-0.674-4.684
		c-0.237-2.538,1.451-9.095,10.455-9.095c9.004,0,10.688,6.557,10.454,9.095c-0.19,2.038-0.674,4.684-0.674,4.684
		s0.955,0.445,0.955,2.233c-0.338,4.487-2.086,2.553-2.447,4.52c-0.867,4.738-2.846,3.895-2.846,6.484
		c0,4.31,2.068,5.591,8.558,7.978c1.708,0.63,3.254,1.261,4.612,1.882C43.877,53.378,37.284,56.336,30,56.336z"/>
	<path fill="#FFFFFF" d="M35.475,38.74c0-2.59,1.979-1.746,2.846-6.484c0.363-1.967,2.109-0.031,2.447-4.52
		c0-1.788-0.955-2.233-0.955-2.233s0.483-2.646,0.674-4.684c0.234-2.538-1.449-9.095-10.453-9.095
		c-9.004,0-10.692,6.557-10.455,9.095c0.19,2.038,0.674,4.684,0.674,4.684s-0.953,0.445-0.953,2.233
		c0.336,4.487,2.083,2.553,2.446,4.52c0.871,4.738,2.85,3.895,2.85,6.484c0,4.31-2.074,5.591-8.562,7.978
		c-1.727,0.636-3.287,1.274-4.657,1.902c4.767,4.767,11.352,7.716,18.625,7.716c7.284,0,13.877-2.958,18.646-7.736
		c-1.358-0.621-2.904-1.252-4.612-1.882C37.544,44.331,35.475,43.05,35.475,38.74z"/>
</g>
</svg>
